<?xml version="1.0" standalone="no"?>
<!DOCTYPE svg PUBLIC "-//W3C//DTD SVG 1.1//EN" "http://www.w3.org/Graphics/SVG/1.1/DTD/svg11.dtd">
<svg xmlns="http://www.w3.org/2000/svg" width="610" height="409" viewBox="0 0 610 409" fill="none">
<path d="M108.128 105.8V116.7L145.028 117.3C165.328 117.7 196.128 117.7 213.528 117.3L245.128 116.7V105.8V95H176.628H108.128V105.8Z" fill="#4654A3"/>
<path d="M434.128 302.513V313.124L452.443 313.708C462.519 314.097 477.807 314.097 486.443 313.708L502.128 313.124V302.513V292H468.128H434.128V302.513Z" fill="#4654A3"/>
<path d="M165.628 138.1C148.528 139.7 133.228 147.5 122.628 159.9C102.228 183.8 103.428 222.3 125.228 244.1C142.228 261.1 166.428 267.5 192.828 262.1C206.428 259.3 220.928 251.2 227.028 242.9C228.928 240.3 229.128 239.6 228.028 238.5C216.728 228.2 205.128 218 204.628 218C204.228 218 201.828 219.8 199.328 222.1C191.328 229.1 187.828 230.5 177.628 230.5C166.928 230.5 161.028 228.2 156.328 222.3C150.328 214.6 149.628 212.3 149.628 201C149.628 192 149.928 189.8 151.928 185.7C159.828 169.7 179.328 165.3 195.028 175.9C198.228 178.1 201.428 180.9 202.328 182.1C203.828 184.4 203.828 184.4 216.428 173.1C223.428 166.9 229.128 161.5 229.128 161.2C229.128 160 223.828 154.7 219.128 150.9C215.328 147.9 208.428 144.2 200.628 141C193.928 138.2 177.928 136.9 165.628 138.1Z" fill="#270949"/>
<path d="M294.128 138C285.028 138.8 282.428 139.4 274.128 142.8C260.028 148.4 248.228 158.9 241.828 171.5C235.528 184 233.428 195.4 235.128 208.4C237.228 223.7 242.328 234.2 252.328 244.2C266.528 258.2 285.528 265 307.028 263.7C326.228 262.6 342.328 255.9 353.728 244.3C359.328 238.5 365.428 229.1 367.428 223C371.328 211.1 372.128 197.6 369.628 186C367.928 177.9 361.228 164.8 356.128 159.3C340.728 143 319.828 135.8 294.128 138ZM314.628 172.8C320.528 176 323.828 179.3 326.928 185.2C329.328 190 329.628 191.5 329.628 201C329.528 213.1 327.828 217.8 320.928 224.2C313.428 231.2 299.928 233 290.528 228.2C280.328 223 275.728 213.5 276.328 198.7C276.628 189 278.528 183.6 283.428 178.6C286.328 175.5 293.128 171.3 296.228 170.7C301.128 169.6 310.728 170.7 314.628 172.8Z" fill="#270949"/>
<path d="M387.128 200.5V261H407.128H427.128V246V231H433.028H438.828L447.328 243.2C451.928 250 456.528 256.7 457.428 258.2L459.128 261H480.628H502.128L497.428 253.6C494.728 249.5 489.328 241.3 485.428 235.5C481.428 229.7 478.128 224.6 478.128 224.2C478.128 223.8 479.928 222.4 482.128 221C486.728 218.2 492.928 211.3 495.628 206C501.828 194.1 501.528 176.6 495.028 163.8C490.028 154 477.728 145.7 462.628 142C455.528 140.2 450.928 140 420.928 140H387.128V200.5ZM447.928 171.6C449.628 172 452.728 173.7 454.728 175.4C458.028 178.2 458.528 179.2 458.828 184.1C459.328 190.8 457.128 195.6 452.128 198.2C449.428 199.6 446.428 200 437.928 200H427.128V185.5V171H436.028C440.928 171 446.228 171.3 447.928 171.6Z" fill="#270949"/>
<path d="M187.128 289.1C187.128 293.6 186.928 294.1 185.428 293.5C179.628 291 171.828 293.1 170.028 297.7C168.228 302.5 168.928 307.8 171.928 311.1C174.228 313.7 175.328 314.2 179.428 314.2C182.028 314.2 184.828 313.6 185.628 313C186.728 312.1 187.128 312.1 187.128 312.9C187.128 313.5 188.528 314 190.128 314H193.128V299V284H190.128C187.228 284 187.128 284.1 187.128 289.1ZM185.228 298.6C188.428 302.5 185.628 310 180.928 310C178.428 310 175.128 306.4 175.128 303.7C175.128 298.1 181.928 294.7 185.228 298.6Z" fill="#270949"/>
<path d="M116.128 286.9C109.128 290.6 105.928 300.1 109.428 306.9C113.128 314.2 126.428 317.1 133.128 312C135.528 310.2 135.528 310.1 133.728 308.1C132.028 306.3 131.628 306.2 130.228 307.4C125.728 311.2 118.128 309.7 115.628 304.4C111.528 295.8 119.528 287.6 128.328 291.6C131.928 293.2 132.328 293.2 133.828 291.7C136.028 289.6 134.228 287.4 129.228 286C123.928 284.5 120.028 284.8 116.128 286.9Z" fill="#270949"/>
<path d="M252.628 285.7C245.828 287.4 241.728 293.8 242.328 301.6C243.028 310.2 248.428 314.4 258.428 314.3C265.628 314.2 270.128 311.1 272.628 304.5C274.328 300.3 274.328 299.7 272.728 295.7C269.428 287.1 261.928 283.4 252.628 285.7ZM262.828 292C268.928 295.7 268.428 305.1 261.828 308.3C250.628 313.9 242.728 297.4 253.628 291.2C256.528 289.5 259.228 289.8 262.828 292Z" fill="#270949"/>
<path d="M325.128 299.4V314H328.628C332.028 314 332.128 313.9 332.128 310C332.128 306.2 332.328 306 335.028 306C337.328 306 338.628 306.9 340.828 310C343.128 313.3 344.228 314 347.028 314C350.328 314 350.328 314 348.728 311.7C344.928 306.6 344.728 305.2 347.028 303.3C350.128 300.7 351.228 296 349.628 292.2C347.528 287.4 344.328 286 334.228 285.3L325.128 284.7V299.4ZM342.528 292.6C346.328 296.3 342.928 301 336.428 301H332.128V296V291H336.528C339.228 291 341.628 291.6 342.528 292.6Z" fill="#270949"/>
<path d="M145.228 293.7C138.628 297 137.628 306.4 143.328 311.7C147.328 315.4 155.928 315.1 160.228 311.2C162.928 308.8 163.428 307.6 163.528 303.7C163.628 299.7 163.128 298.6 160.528 295.9C156.628 292 150.328 291.1 145.228 293.7ZM155.228 298C156.628 298.8 157.128 300.1 157.128 303C157.128 310.2 150.728 312.7 147.228 306.9C143.428 300.6 148.828 294.6 155.228 298Z" fill="#270949"/>
<path d="M205.728 293.5C201.428 295.8 200.228 297.9 200.128 303.3C200.128 307.4 200.628 308.6 203.028 311.1C205.628 313.6 206.728 314 211.628 314C214.728 314 218.128 313.5 219.228 312.9C221.128 311.9 221.228 311.7 219.628 310C218.228 308.5 217.528 308.4 215.028 309.3C212.628 310.2 211.528 310.2 209.428 309C204.128 306 205.428 305 214.528 305C222.328 305 223.128 304.8 223.128 303.1C223.128 299.4 221.128 296 217.928 294C214.028 291.6 209.728 291.5 205.728 293.5ZM214.928 297.6C218.928 300.4 217.728 302 211.628 302C207.528 302 206.128 301.6 206.128 300.6C206.128 299 209.828 296 211.628 296C212.228 296 213.728 296.7 214.928 297.6Z" fill="#270949"/>
<path d="M280.828 292.7C280.428 293 280.128 298 280.128 303.7V314H283.628H287.128V306.5C287.128 300.2 287.428 298.9 289.028 298C294.528 295.1 297.128 298 297.128 307.1V314H300.128H303.128V305.7C303.128 299.4 302.628 297 301.328 295.2C299.028 292.2 293.228 291.3 289.228 293.3C286.628 294.6 286.128 294.6 286.128 293.4C286.128 292 282.028 291.4 280.828 292.7Z" fill="#270949"/>
<path d="M357.828 292.6C356.828 293.7 357.028 304 358.128 308.1C358.728 310.1 359.828 312.3 360.528 312.9C362.428 314.5 370.728 314.5 372.628 313C373.628 312.1 374.128 312.1 374.128 312.9C374.128 313.5 375.528 314 377.128 314H380.128V303V292H377.128C374.328 292 374.128 292.3 374.028 295.7C373.928 297.8 374.028 300.3 374.128 301.4C374.428 304.2 372.128 308.8 370.328 309.2C369.328 309.5 367.728 309.4 366.628 309C364.928 308.4 364.528 307.1 364.128 300.4C363.628 292.8 363.528 292.5 361.128 292.2C359.728 292 358.228 292.2 357.828 292.6Z" fill="#270949"/>
<path d="M388.128 303V314H391.128H394.128V307.5C394.128 300.6 396.128 297 399.928 297C403.628 297 404.528 298.7 404.928 306.4L405.328 314H408.228H411.128V306.7C411.128 297.1 410.528 295.5 406.528 293.4C403.628 291.8 402.528 291.7 398.928 292.7C396.328 293.4 394.528 293.5 394.328 292.9C394.128 292.4 392.628 292 391.028 292H388.128V303Z" fill="#270949"/>
</svg>